<svg width="1200" height="53" viewBox="0 0 1200 53" fill="none" xmlns="http://www.w3.org/2000/svg">
<g clip-path="url(#clip0_1_1067)">
<path d="M17.15 1C7.67748 1 0 8.67746 0 18.15C0 27.0201 6.73548 34.3175 15.3711 35.207C14.8496 30.9134 15.0436 27.4001 15.7067 24.5135C15.3347 22.7225 14.4898 20.0703 12.5734 18.1864C12.5734 18.1864 13.8348 20.0784 14.5181 22.6214C14.5181 22.6255 14.5221 22.6295 14.5221 22.6335C14.5949 22.9044 14.6596 23.1793 14.7162 23.4623C14.7283 23.527 14.7404 23.5917 14.7526 23.6604C14.8051 23.9515 14.8536 24.2426 14.886 24.5418C5.19513 23.3532 3.12921 14.6569 3.35561 11.3781C13.665 11.9482 15.7754 18.8292 16.0827 23.0985C19.4585 12.0412 30.1843 11.4024 31.0697 11.3781C31.4538 19.8763 25.1509 26.5026 17.6149 27.0807C17.6635 26.8503 17.7201 26.6198 17.7767 26.3934C17.7928 26.3247 17.813 26.26 17.8333 26.1913C17.8777 26.0296 17.9222 25.8679 17.9748 25.7061C17.995 25.6374 18.0192 25.5646 18.0394 25.4959C18.096 25.318 18.1567 25.1442 18.2173 24.9663C18.2335 24.9259 18.2456 24.8854 18.2618 24.845C18.3386 24.6348 18.4195 24.4326 18.5003 24.2305C18.5084 24.2143 18.5125 24.1941 18.5205 24.1779C18.5205 24.1779 18.5205 24.1779 18.5246 24.1779C20.4571 19.5043 24.0229 16.4439 24.0229 16.4439C17.0247 20.4868 15.8441 30.9983 15.6582 35.2231C16.1514 35.2676 16.6446 35.2999 17.15 35.2999C26.6225 35.2999 34.3 27.6225 34.3 18.15C34.3 8.67746 26.6225 1 17.15 1Z" fill="#46A358"/>
<path d="M46.7037 11.7454C48.9718 11.7454 50.8235 12.7197 52.0242 14.4986L49.7764 16.4109C48.9718 15.287 47.9975 14.7048 46.6471 14.7048C44.5691 14.7048 43.2753 16.0713 43.2753 18.1534C43.2753 20.2719 44.6418 21.695 46.8372 21.695C48.0177 21.695 48.9556 21.2826 49.554 20.5912V20.0091H46.6673V17.2356H52.7762V21.133C52.194 22.1639 51.3693 22.9887 50.3019 23.6234C49.2346 24.242 48.0339 24.5614 46.7037 24.5614C42.9923 24.618 39.9237 21.7313 39.9763 18.1534C39.9197 14.5956 42.9923 11.6888 46.7037 11.7454Z" fill="#46A358"/>
<path d="M61.9576 24.3316L59.168 20.4908H57.8379V24.3316H54.6157V11.9684H59.4672C62.2204 11.9684 64.2459 13.6543 64.2459 16.2215C64.2459 17.7376 63.5141 18.995 62.2972 19.7429L65.5558 24.3316H61.9576ZM57.8338 17.681H59.4833C60.3809 17.681 60.963 17.0988 60.963 16.2215C60.963 15.3442 60.3809 14.7782 59.4833 14.7782H57.8338V17.681Z" fill="#46A358"/>
<path d="M66.8333 11.9684H75.4124V14.8712H70.0555V16.5773H73.876V19.2739H70.0555V21.4288H75.6388V24.3316H66.8333V11.9684Z" fill="#46A358"/>
<path d="M77.6441 11.9684H86.2231V14.8712H80.8663V16.5773H84.6868V19.2739H80.8663V21.4288H86.4495V24.3316H77.6441V11.9684Z" fill="#46A358"/>
<path d="M99.4192 11.9683V24.5579H98.3882L91.681 18.057V24.3315H88.4588V11.7419H89.4897L96.197 18.1499V11.9683H99.4192Z" fill="#46A358"/>
<path d="M103.264 20.135C103.996 21.1094 104.764 21.7279 106.017 21.7279C106.862 21.7279 107.291 21.4288 107.291 20.8264C107.291 20.2846 107.008 20.1148 106.033 19.6822L104.76 19.1203C102.718 18.2187 101.631 17.0584 101.631 15.3927C101.631 13.2014 103.43 11.7379 105.957 11.7379C107.998 11.7379 109.442 12.7123 110.19 14.2283L108.035 15.8778C107.436 14.9803 106.874 14.5679 105.993 14.5679C105.318 14.5679 104.889 14.8307 104.889 15.3563C104.889 15.8051 105.152 16.0517 105.957 16.367L107.38 16.9654C109.535 17.867 110.545 18.9505 110.545 20.6929C110.545 23.0904 108.576 24.5539 106.009 24.5539C103.782 24.5539 101.982 23.4866 101.081 21.7805L103.264 20.135Z" fill="#46A358"/>
<path d="M112.393 11.9684H115.615V16.4843H120.131V11.9684H123.353V24.3316H120.131V19.3871H115.615V24.3316H112.393V11.9684Z" fill="#46A358"/>
<path d="M131.843 11.7419C135.441 11.6651 138.607 14.6084 138.53 18.1499C138.603 21.7279 135.441 24.6145 131.843 24.5579C128.229 24.6145 125.116 21.7279 125.193 18.1499C125.116 14.6084 128.229 11.6692 131.843 11.7419ZM131.859 14.7014C129.874 14.7014 128.488 16.1083 128.488 18.1499C128.488 19.1809 128.807 20.0218 129.426 20.6606C130.044 21.2791 130.869 21.5985 131.859 21.5985C133.772 21.5985 135.231 20.2118 135.231 18.1499C135.235 16.1083 133.772 14.7014 131.859 14.7014Z" fill="#46A358"/>
<path d="M140.374 11.9684H145.226C147.979 11.9684 150.004 13.6543 150.004 16.2215C150.004 18.7524 147.926 20.4908 145.226 20.4908H143.596V24.3316H140.374V11.9684ZM145.242 17.681C146.139 17.681 146.721 17.0988 146.721 16.2215C146.721 15.3442 146.139 14.7782 145.242 14.7782H143.592V17.681H145.242Z" fill="#46A358"/>
</g>
<line y1="52.85" x2="1200" y2="52.85" stroke="#46A358" stroke-opacity="0.5" stroke-width="0.3"/>
<line x1="379" y1="51.5" x2="424" y2="51.5" stroke="#46A358" stroke-width="3"/>
<path d="M380.216 23H382.376V18.44H387.048V23H389.208V12.44H387.048V16.488H382.376V12.44H380.216V23ZM390.952 19.032C390.904 21.288 392.856 23.224 395.176 23.176C397.496 23.224 399.496 21.288 399.448 19.032C399.496 16.776 397.512 14.872 395.192 14.904C392.872 14.856 390.904 16.776 390.952 19.032ZM397.24 19.048C397.24 20.28 396.36 21.192 395.192 21.192C393.992 21.192 393.144 20.28 393.144 19.048C393.144 17.784 393.992 16.872 395.192 16.872C396.36 16.872 397.24 17.816 397.24 19.048ZM413.343 18.088C413.343 16.168 412.207 14.904 410.351 14.904C409.263 14.904 408.335 15.336 407.711 16.04C407.183 15.288 406.399 14.904 405.359 14.904C404.447 14.904 403.647 15.224 403.119 15.784V15.08H401.135V23H403.295V18.392C403.295 17.448 403.871 16.856 404.751 16.856C405.599 16.856 406.159 17.448 406.159 18.392V23H408.319V18.344C408.319 17.464 408.927 16.856 409.775 16.856C410.623 16.856 411.183 17.448 411.183 18.392V23H413.343V18.088ZM422.68 19.768C422.776 19.368 422.824 18.968 422.824 18.584C422.824 16.52 421.288 14.904 419.096 14.904C416.808 14.856 414.904 16.76 414.952 19.048C414.904 21.336 416.84 23.24 419.288 23.192C420.456 23.192 421.512 22.792 422.456 22.008L421.56 20.536C420.872 21.064 420.136 21.336 419.352 21.336C418.2 21.336 417.384 20.776 417.128 19.768H422.68ZM417.128 18.248C417.368 17.272 418.104 16.648 419.016 16.648C419.96 16.648 420.712 17.272 420.728 18.248H417.128Z" fill="#3D3D3D"/>
<path d="M474.656 20.904C475.488 22.312 476.896 23.176 478.544 23.176C480.512 23.176 481.952 21.976 481.952 20.232C481.952 18.872 481.152 18.104 479.488 17.288L478.32 16.728C477.488 16.328 477.104 16.12 476.832 15.72C476.688 15.512 476.624 15.256 476.624 14.952C476.624 13.976 477.456 13.416 478.496 13.416C479.456 13.416 480.336 13.896 480.912 14.744L481.824 14.056C481.136 12.984 479.92 12.264 478.512 12.264C476.784 12.264 475.328 13.368 475.328 15.016C475.328 16.424 476.256 17.16 477.712 17.848L478.896 18.408C480.08 18.984 480.656 19.304 480.656 20.264C480.656 21.336 479.792 22.024 478.528 22.024C477.36 22.024 476.368 21.416 475.584 20.216L474.656 20.904ZM490.73 18.104C490.73 16.264 489.642 15.032 487.85 15.032C486.874 15.032 486.042 15.432 485.514 16.088V11H484.282V23H485.514V18.264C485.514 17.048 486.362 16.168 487.562 16.168C488.762 16.168 489.498 17 489.498 18.264V23H490.73V18.104ZM492.784 19.096C492.752 21.288 494.624 23.208 496.848 23.16C499.072 23.208 500.992 21.288 500.944 19.096C500.992 16.872 499.088 15 496.864 15.032C494.64 14.984 492.736 16.872 492.784 19.096ZM499.68 19.112C499.68 20.744 498.432 22.024 496.848 22.024C495.264 22.024 494.048 20.744 494.048 19.112C494.048 17.432 495.264 16.168 496.864 16.168C498.448 16.168 499.68 17.432 499.68 19.112ZM511.062 19.096C511.062 16.808 509.43 15.032 507.206 15.032C505.99 15.032 504.854 15.56 504.262 16.456V15.208H503.11V25.88H504.342V21.88C504.982 22.696 506.054 23.176 507.206 23.176C509.398 23.176 511.062 21.384 511.062 19.096ZM509.798 19.112C509.798 20.792 508.614 22.04 507.03 22.04C505.59 22.04 504.326 21.08 504.326 19.096C504.326 17.128 505.638 16.168 507.03 16.168C508.614 16.168 509.798 17.432 509.798 19.112Z" fill="#3D3D3D"/>
<path d="M563.456 23H564.704V18.584H567.168C569.216 18.584 570.544 17.304 570.544 15.496C570.544 13.72 569.216 12.44 567.168 12.44H563.456V23ZM564.704 17.464V13.56H567.136C568.48 13.56 569.248 14.36 569.248 15.512C569.248 16.68 568.48 17.464 567.136 17.464H564.704ZM572.532 23H573.764V11H572.532V23ZM582.309 18.2C582.309 16.152 581.109 15.032 579.269 15.032C577.973 15.032 576.805 15.592 576.101 16.744L576.917 17.416C577.557 16.584 578.245 16.168 579.189 16.168C580.357 16.168 581.077 16.856 581.077 18.136V18.808H578.613C576.933 18.808 575.813 19.656 575.813 20.984C575.813 22.328 576.933 23.176 578.533 23.176C579.669 23.176 580.581 22.76 581.157 21.992V23H582.309V18.2ZM581.077 20.008C581.077 21.208 579.973 22.152 578.693 22.152C577.781 22.152 577.077 21.704 577.077 20.92C577.077 20.2 577.669 19.816 578.757 19.816H581.077V20.008ZM591.371 18.104C591.371 16.264 590.283 15.032 588.475 15.032C587.499 15.032 586.651 15.4 586.075 16.04V15.208H584.923V23H586.155V18.248C586.155 17.032 587.003 16.168 588.203 16.168C589.403 16.168 590.139 17.016 590.139 18.248V23H591.371V18.104ZM598.241 21.96C597.841 22.024 597.505 22.056 597.201 22.056C596.129 22.056 595.553 21.672 595.553 20.568V16.312H597.985V15.208H595.553V13.08H594.321V15.208H593.009V16.312H594.321V20.648C594.321 22.36 595.329 23.176 596.945 23.176C597.313 23.176 597.745 23.112 598.241 23V21.96ZM603.971 17.72C603.907 20.744 606.467 23.224 609.459 23.176C611.331 23.176 612.963 22.296 613.843 20.904L612.915 20.168C612.099 21.336 610.931 22.024 609.475 22.024C607.091 22.024 605.267 20.168 605.267 17.72C605.267 15.272 607.091 13.416 609.475 13.416C610.931 13.416 612.099 14.104 612.915 15.272L613.843 14.536C612.947 13.144 611.331 12.264 609.459 12.264C606.467 12.216 603.907 14.696 603.971 17.72ZM621.763 18.2C621.763 16.152 620.563 15.032 618.723 15.032C617.427 15.032 616.259 15.592 615.555 16.744L616.371 17.416C617.011 16.584 617.699 16.168 618.643 16.168C619.811 16.168 620.531 16.856 620.531 18.136V18.808H618.067C616.387 18.808 615.267 19.656 615.267 20.984C615.267 22.328 616.387 23.176 617.987 23.176C619.123 23.176 620.035 22.76 620.611 21.992V23H621.763V18.2ZM620.531 20.008C620.531 21.208 619.427 22.152 618.147 22.152C617.235 22.152 616.531 21.704 616.531 20.92C616.531 20.2 617.123 19.816 618.211 19.816H620.531V20.008ZM628.52 15.208C628.312 15.16 628.12 15.144 627.944 15.144C627 15.144 626.088 15.56 625.528 16.312V15.208H624.376V23H625.608V18.584C625.608 17.144 626.744 16.296 628.056 16.296H628.52V15.208ZM636.896 19.48C636.96 19.16 636.992 18.856 636.992 18.552C636.992 16.488 635.456 15.032 633.44 15.032C631.216 15.032 629.456 16.856 629.456 19.112C629.456 21.4 631.264 23.176 633.584 23.176C634.816 23.176 635.888 22.664 636.704 21.816L635.984 20.984C635.28 21.688 634.48 22.04 633.6 22.04C632.064 22.04 630.88 21.016 630.736 19.48H636.896ZM630.784 18.392C631.056 17.048 632.112 16.152 633.408 16.152C634.704 16.152 635.712 17 635.728 18.392H630.784Z" fill="#3D3D3D"/>
<path d="M697.152 19.96C697.152 18.6 696.384 17.576 695.088 17.192C695.728 16.696 696.096 15.992 696.096 15.112C696.096 14.328 695.824 13.688 695.28 13.192C694.736 12.696 694 12.44 693.088 12.44H689.456V23H693.808C695.872 23 697.152 21.72 697.152 19.96ZM692.96 13.56C694.176 13.56 694.816 14.184 694.816 15.192C694.816 16.2 694.16 16.84 692.96 16.84H690.704V13.56H692.96ZM695.872 19.928C695.872 21.096 695.072 21.88 693.68 21.88H690.704V17.976H693.68C695.072 17.976 695.872 18.76 695.872 19.928ZM699.219 23H700.451V11H699.219V23ZM702.597 19.096C702.565 21.288 704.437 23.208 706.661 23.16C708.885 23.208 710.805 21.288 710.757 19.096C710.805 16.872 708.901 15 706.677 15.032C704.453 14.984 702.549 16.872 702.597 19.096ZM709.493 19.112C709.493 20.744 708.245 22.024 706.661 22.024C705.077 22.024 703.861 20.744 703.861 19.112C703.861 17.432 705.077 16.168 706.677 16.168C708.261 16.168 709.493 17.432 709.493 19.112ZM719.243 15.208V16.456C718.651 15.56 717.515 15.032 716.283 15.032C714.091 15.032 712.459 16.744 712.459 18.984C712.459 21.24 714.091 22.92 716.283 22.92C717.451 22.92 718.555 22.44 719.179 21.624V22.312C719.179 23.992 718.203 24.92 716.587 24.92C715.419 24.92 714.555 24.456 713.674 23.688L712.955 24.552C713.835 25.432 715.099 26.056 716.619 26.056C718.923 26.056 720.411 24.616 720.411 22.248V15.208H719.243ZM719.195 18.984C719.195 20.872 717.899 21.784 716.475 21.784C714.891 21.784 713.707 20.648 713.707 19C713.707 17.368 714.891 16.2 716.475 16.2C717.883 16.2 719.195 17.112 719.195 18.984ZM722.374 21.656C723.062 22.552 724.118 23.176 725.414 23.176C726.182 23.176 726.822 22.984 727.35 22.584C727.878 22.184 728.15 21.608 728.15 20.888C728.15 19.816 727.542 19.208 726.086 18.584L725.366 18.28C724.422 17.88 724.102 17.64 724.102 17.144C724.102 16.52 724.63 16.168 725.398 16.168C726.118 16.168 726.79 16.504 727.318 17.032L728.07 16.264C727.43 15.496 726.55 15.032 725.462 15.032C723.974 15.032 722.838 15.848 722.838 17.208C722.838 18.248 723.478 18.84 724.774 19.368L725.526 19.688C726.486 20.072 726.886 20.312 726.886 20.936C726.886 21.624 726.246 22.04 725.398 22.04C724.518 22.04 723.91 21.608 723.158 20.84L722.374 21.656Z" fill="#3D3D3D"/>
<rect x="1100" width="100" height="35" rx="6" fill="#46A358"/>
<path d="M1142.33 23H1148.86V21.48H1144.02V12.44H1142.33V23ZM1149.89 19.064C1149.84 21.288 1151.78 23.224 1154.04 23.176C1156.32 23.224 1158.26 21.288 1158.21 19.064C1158.26 16.84 1156.32 14.92 1154.04 14.968C1151.78 14.936 1149.84 16.808 1149.89 19.064ZM1156.48 19.08C1156.48 20.504 1155.43 21.624 1154.04 21.624C1152.66 21.624 1151.6 20.536 1151.6 19.08C1151.6 17.624 1152.66 16.504 1154.05 16.504C1155.41 16.504 1156.48 17.624 1156.48 19.08ZM1166.3 15.144V16.264C1165.72 15.448 1164.71 14.968 1163.51 14.968C1161.34 14.968 1159.69 16.616 1159.69 18.904C1159.69 21.192 1161.32 22.84 1163.51 22.84C1164.6 22.84 1165.58 22.44 1166.17 21.72V22.28C1166.17 23.752 1165.24 24.52 1163.82 24.52C1162.75 24.52 1161.95 24.104 1161.07 23.4L1160.14 24.568C1161.08 25.448 1162.36 26.056 1163.91 26.056C1166.3 26.056 1167.85 24.664 1167.85 22.184V15.144H1166.3ZM1166.19 18.888C1166.19 19.688 1165.95 20.296 1165.48 20.728C1165.02 21.16 1164.47 21.368 1163.82 21.368C1163.13 21.368 1162.57 21.144 1162.11 20.696C1161.64 20.232 1161.42 19.64 1161.42 18.904C1161.42 18.184 1161.64 17.592 1162.11 17.144C1162.57 16.696 1163.13 16.472 1163.82 16.472C1165.11 16.472 1166.19 17.288 1166.19 18.888ZM1170.28 23H1171.96V15.144H1170.28V23ZM1169.98 12.216C1169.98 12.84 1170.49 13.32 1171.13 13.32C1171.75 13.32 1172.26 12.84 1172.26 12.216C1172.26 11.592 1171.75 11.096 1171.13 11.096C1170.49 11.096 1169.98 11.592 1169.98 12.216ZM1181.25 18.088C1181.25 16.216 1180.15 14.968 1178.31 14.968C1177.33 14.968 1176.55 15.288 1175.96 15.912V15.144H1174.39V23H1176.07V18.312C1176.07 17.24 1176.82 16.488 1177.86 16.488C1178.88 16.488 1179.57 17.224 1179.57 18.312V23H1181.25V18.088Z" fill="white"/>
<path d="M1135.16 17.1006H1125.13" stroke="white" stroke-width="1.5" stroke-linecap="round" stroke-linejoin="round"/>
<path d="M1132.72 14.6706L1135.16 17.1006L1132.72 19.5306" stroke="white" stroke-width="1.5" stroke-linecap="round" stroke-linejoin="round"/>
<path d="M1130.63 13.3583C1130.36 10.3749 1129.24 9.2916 1124.8 9.2916C1118.88 9.2916 1118.88 11.2166 1118.88 16.9999C1118.88 22.7833 1118.88 24.7083 1124.8 24.7083C1129.24 24.7083 1130.36 23.6249 1130.63 20.6416" stroke="white" stroke-width="1.5" stroke-linecap="round" stroke-linejoin="round"/>
<defs>
<clipPath id="clip0_1_1067">
<rect width="150" height="34.2999" fill="white" transform="translate(0 1)"/>
</clipPath>
</defs>
</svg>
